<mxfile host="app.diagrams.net" agent="Mozilla/5.0 (Windows NT 10.0; Win64; x64; rv:134.0) Gecko/20100101 Firefox/134.0" version="26.0.10">
  <diagram name="Page-1" id="s89Malex1QlWeOYyBY9l">
    <mxGraphModel dx="1260" dy="630" grid="1" gridSize="10" guides="1" tooltips="1" connect="1" arrows="1" fold="1" page="1" pageScale="1" pageWidth="827" pageHeight="1169" math="0" shadow="0">
      <root>
        <mxCell id="0" />
        <mxCell id="1" parent="0" />
        <mxCell id="k-dgNNCUTFC21pD02pax-4" value="" style="endArrow=none;dashed=1;html=1;dashPattern=1 3;strokeWidth=2;rounded=0;exitX=0.5;exitY=0;exitDx=0;exitDy=0;" parent="1" source="k-dgNNCUTFC21pD02pax-8" edge="1">
          <mxGeometry width="50" height="50" relative="1" as="geometry">
            <mxPoint x="210" y="390" as="sourcePoint" />
            <mxPoint x="413" y="280" as="targetPoint" />
          </mxGeometry>
        </mxCell>
        <mxCell id="k-dgNNCUTFC21pD02pax-5" value="" style="endArrow=none;dashed=1;html=1;dashPattern=1 3;strokeWidth=2;rounded=0;exitX=0.5;exitY=0;exitDx=0;exitDy=0;" parent="1" source="k-dgNNCUTFC21pD02pax-13" edge="1">
          <mxGeometry width="50" height="50" relative="1" as="geometry">
            <mxPoint x="220" y="510" as="sourcePoint" />
            <mxPoint x="120" y="468" as="targetPoint" />
          </mxGeometry>
        </mxCell>
        <mxCell id="k-dgNNCUTFC21pD02pax-14" value="" style="group;strokeWidth=5.1181;" parent="1" vertex="1" connectable="0">
          <mxGeometry x="309" y="400" width="210" height="125" as="geometry" />
        </mxCell>
        <mxCell id="k-dgNNCUTFC21pD02pax-1" value="&lt;div&gt;&lt;b&gt;Boitier support du smartphone&lt;/b&gt;&lt;/div&gt;&lt;div&gt;&lt;b&gt;avec ESP32-C3&lt;br&gt;&lt;/b&gt;&lt;/div&gt;" style="rounded=1;whiteSpace=wrap;html=1;fillColor=#f5f5f5;fontColor=#333333;strokeColor=#666666;" parent="k-dgNNCUTFC21pD02pax-14" vertex="1">
          <mxGeometry x="10" y="10" width="200" height="115" as="geometry" />
        </mxCell>
        <mxCell id="k-dgNNCUTFC21pD02pax-8" value="" style="rounded=0;whiteSpace=wrap;html=1;fillColor=#76608a;fontColor=#ffffff;strokeColor=#432D57;" parent="k-dgNNCUTFC21pD02pax-14" vertex="1">
          <mxGeometry x="89" width="30" height="10" as="geometry" />
        </mxCell>
        <mxCell id="k-dgNNCUTFC21pD02pax-13" value="" style="rounded=0;whiteSpace=wrap;html=1;fillColor=#76608a;fontColor=#ffffff;strokeColor=#432D57;rotation=-90;" parent="k-dgNNCUTFC21pD02pax-14" vertex="1">
          <mxGeometry x="-10" y="62.5" width="30" height="10" as="geometry" />
        </mxCell>
        <mxCell id="k-dgNNCUTFC21pD02pax-15" value="" style="group" parent="1" vertex="1" connectable="0">
          <mxGeometry x="120" y="280" width="560" height="320" as="geometry" />
        </mxCell>
        <mxCell id="k-dgNNCUTFC21pD02pax-2" value="" style="endArrow=none;html=1;rounded=0;strokeWidth=3.1496;fillColor=#647687;strokeColor=#314354;" parent="k-dgNNCUTFC21pD02pax-15" edge="1">
          <mxGeometry width="50" height="50" relative="1" as="geometry">
            <mxPoint y="320" as="sourcePoint" />
            <mxPoint as="targetPoint" />
          </mxGeometry>
        </mxCell>
        <mxCell id="k-dgNNCUTFC21pD02pax-3" value="" style="endArrow=none;html=1;rounded=0;strokeWidth=3.1496;fillColor=#647687;strokeColor=#314354;" parent="k-dgNNCUTFC21pD02pax-15" edge="1">
          <mxGeometry width="50" height="50" relative="1" as="geometry">
            <mxPoint as="sourcePoint" />
            <mxPoint x="560" as="targetPoint" />
          </mxGeometry>
        </mxCell>
        <mxCell id="k-dgNNCUTFC21pD02pax-20" value="VL053L0X" style="text;html=1;align=center;verticalAlign=middle;resizable=0;points=[];autosize=1;strokeColor=none;fillColor=none;" parent="k-dgNNCUTFC21pD02pax-15" vertex="1">
          <mxGeometry x="60" y="290" width="80" height="30" as="geometry" />
        </mxCell>
        <mxCell id="k-dgNNCUTFC21pD02pax-16" value="" style="endArrow=classic;html=1;rounded=0;exitX=-0.01;exitY=0.367;exitDx=0;exitDy=0;exitPerimeter=0;" parent="1" source="k-dgNNCUTFC21pD02pax-18" edge="1">
          <mxGeometry width="50" height="50" relative="1" as="geometry">
            <mxPoint x="320" y="160" as="sourcePoint" />
            <mxPoint x="120" y="400" as="targetPoint" />
          </mxGeometry>
        </mxCell>
        <mxCell id="k-dgNNCUTFC21pD02pax-17" value="" style="endArrow=classic;html=1;rounded=0;exitX=-0.007;exitY=0.567;exitDx=0;exitDy=0;exitPerimeter=0;" parent="1" source="k-dgNNCUTFC21pD02pax-18" edge="1">
          <mxGeometry width="50" height="50" relative="1" as="geometry">
            <mxPoint x="320" y="160" as="sourcePoint" />
            <mxPoint x="280" y="280" as="targetPoint" />
          </mxGeometry>
        </mxCell>
        <mxCell id="k-dgNNCUTFC21pD02pax-18" value="Baguettes profilÃ© plastique blanc de 2 cm de hauteur" style="text;html=1;align=center;verticalAlign=middle;resizable=0;points=[];autosize=1;strokeColor=none;fillColor=none;" parent="1" vertex="1">
          <mxGeometry x="313" y="180" width="300" height="30" as="geometry" />
        </mxCell>
        <mxCell id="k-dgNNCUTFC21pD02pax-19" value="" style="endArrow=classic;html=1;rounded=0;entryX=0;entryY=0;entryDx=0;entryDy=0;exitX=0.713;exitY=0.033;exitDx=0;exitDy=0;exitPerimeter=0;" parent="1" source="k-dgNNCUTFC21pD02pax-20" target="k-dgNNCUTFC21pD02pax-13" edge="1">
          <mxGeometry width="50" height="50" relative="1" as="geometry">
            <mxPoint x="250" y="560" as="sourcePoint" />
            <mxPoint x="440" y="440" as="targetPoint" />
          </mxGeometry>
        </mxCell>
      </root>
    </mxGraphModel>
  </diagram>
</mxfile>
